<svg xmlns="http://www.w3.org/2000/svg" width="716" height="112">
   <defs>
      <style type="text/css">
         @namespace "http://www.w3.org/2000/svg";
         .line                 {fill: none; stroke: #332900;}
         .bold-line            {stroke: #141000; shape-rendering: crispEdges; stroke-width:
         2; }
         .thin-line            {stroke: #1F1800; shape-rendering: crispEdges}
         .filled               {fill: #332900; stroke: none;}
         text.terminal         {font-family: Verdana, Sans-serif;
         font-size: 12px;
         fill: #141000;
         font-weight: bold;
         }
         text.nonterminal      {font-family: Verdana, Sans-serif;
         font-size: 12px;
         fill: #1A1400;
         }
         text.regexp           {font-family: Verdana, Sans-serif;
         font-size: 12px;
         fill: #1F1800;
         }
         rect, circle, polygon {fill: #332900; stroke: #332900;}
         rect.terminal         {fill: #FFDB4D; stroke: #332900;}
         rect.nonterminal      {fill: #FFEC9E; stroke: #332900;}
         rect.text             {fill: none; stroke: none;}    
         polygon.regexp        {fill: #FFF4C7; stroke: #332900;}
         
      </style>
   </defs>
   <polygon points="9 61 1 57 1 65"/>
   <polygon points="17 61 9 57 9 65"/>
   <a xmlns:xlink="http://www.w3.org/1999/xlink" xlink:href="#FieldName" xlink:title="FieldName">
      <rect x="31" y="47" width="82" height="32"/>
      <rect x="29" y="45" width="82" height="32" class="nonterminal"/>
      <text class="nonterminal" x="39" y="65">FieldName</text>
   </a>
   <rect x="153" y="47" width="26" height="32" rx="10"/>
   <rect x="151" y="45" width="26" height="32" class="terminal" rx="10"/>
   <text class="terminal" x="161" y="65">(</text>
   <a xmlns:xlink="http://www.w3.org/1999/xlink" xlink:href="#ArgumentName" xlink:title="ArgumentName">
      <rect x="219" y="47" width="114" height="32"/>
      <rect x="217" y="45" width="114" height="32" class="nonterminal"/>
      <text class="nonterminal" x="227" y="65">ArgumentName</text>
   </a>
   <rect x="353" y="47" width="24" height="32" rx="10"/>
   <rect x="351" y="45" width="24" height="32" class="terminal" rx="10"/>
   <text class="terminal" x="361" y="65">:</text>
   <a xmlns:xlink="http://www.w3.org/1999/xlink" xlink:href="#Value" xlink:title="Value">
      <rect x="397" y="47" width="52" height="32"/>
      <rect x="395" y="45" width="52" height="32" class="nonterminal"/>
      <text class="nonterminal" x="405" y="65">Value</text>
   </a>
   <rect x="219" y="3" width="24" height="32" rx="10"/>
   <rect x="217" y="1" width="24" height="32" class="terminal" rx="10"/>
   <text class="terminal" x="227" y="21">,</text>
   <rect x="489" y="47" width="26" height="32" rx="10"/>
   <rect x="487" y="45" width="26" height="32" class="terminal" rx="10"/>
   <text class="terminal" x="497" y="65">)</text>
   <a xmlns:xlink="http://www.w3.org/1999/xlink" xlink:href="#SelectionSet" xlink:title="SelectionSet">
      <rect x="575" y="79" width="94" height="32"/>
      <rect x="573" y="77" width="94" height="32" class="nonterminal"/>
      <text class="nonterminal" x="583" y="97">SelectionSet</text>
   </a>
   <svg:path xmlns:svg="http://www.w3.org/2000/svg" class="line" d="m17 61 h2 m0 0 h10 m82 0 h10 m20 0 h10 m26 0 h10 m20 0 h10 m114 0 h10 m0 0 h10 m24 0 h10 m0 0 h10 m52 0 h10 m-270 0 l20 0 m-1 0 q-9 0 -9 -10 l0 -24 q0 -10 10 -10 m250 44 l20 0 m-20 0 q10 0 10 -10 l0 -24 q0 -10 -10 -10 m-250 0 h10 m24 0 h10 m0 0 h206 m20 44 h10 m26 0 h10 m-402 0 h20 m382 0 h20 m-422 0 q10 0 10 10 m402 0 q0 -10 10 -10 m-412 10 v14 m402 0 v-14 m-402 14 q0 10 10 10 m382 0 q10 0 10 -10 m-392 10 h10 m0 0 h372 m40 -34 h10 m0 0 h104 m-134 0 h20 m114 0 h20 m-154 0 q10 0 10 10 m134 0 q0 -10 10 -10 m-144 10 v12 m134 0 v-12 m-134 12 q0 10 10 10 m114 0 q10 0 10 -10 m-124 10 h10 m94 0 h10 m23 -32 h-3"/>
   <polygon points="707 61 715 57 715 65"/>
   <polygon points="707 61 699 57 699 65"/>
</svg>
