<svg xmlns="http://www.w3.org/2000/svg" width="794" height="96">
   <defs>
      <style type="text/css">
         @namespace "http://www.w3.org/2000/svg";
         .line                 {fill: none; stroke: #332900;}
         .bold-line            {stroke: #141000; shape-rendering: crispEdges; stroke-width:
         2; }
         .thin-line            {stroke: #1F1800; shape-rendering: crispEdges}
         .filled               {fill: #332900; stroke: none;}
         text.terminal         {font-family: Verdana, Sans-serif;
         font-size: 12px;
         fill: #141000;
         font-weight: bold;
         }
         text.nonterminal      {font-family: Verdana, Sans-serif;
         font-size: 12px;
         fill: #1A1400;
         }
         text.regexp           {font-family: Verdana, Sans-serif;
         font-size: 12px;
         fill: #1F1800;
         }
         rect, circle, polygon {fill: #332900; stroke: #332900;}
         rect.terminal         {fill: #FFDB4D; stroke: #332900;}
         rect.nonterminal      {fill: #FFEC9E; stroke: #332900;}
         rect.text             {fill: none; stroke: none;}    
         polygon.regexp        {fill: #FFF4C7; stroke: #332900;}
         
      </style>
   </defs>
   <polygon points="9 61 1 57 1 65"/>
   <polygon points="17 61 9 57 9 65"/>
   <rect x="31" y="47" width="58" height="32" rx="10"/>
   <rect x="29" y="45" width="58" height="32" class="terminal" rx="10"/>
   <text class="terminal" x="39" y="65">query</text>
   <a xmlns:xlink="http://www.w3.org/1999/xlink" xlink:href="#QueryName" xlink:title="QueryName">
      <rect x="129" y="47" width="90" height="32"/>
      <rect x="127" y="45" width="90" height="32" class="nonterminal"/>
      <text class="nonterminal" x="137" y="65">QueryName</text>
   </a>
   <rect x="239" y="47" width="26" height="32" rx="10"/>
   <rect x="237" y="45" width="26" height="32" class="terminal" rx="10"/>
   <text class="terminal" x="247" y="65">(</text>
   <rect x="305" y="47" width="28" height="32" rx="10"/>
   <rect x="303" y="45" width="28" height="32" class="terminal" rx="10"/>
   <text class="terminal" x="313" y="65">$</text>
   <a xmlns:xlink="http://www.w3.org/1999/xlink" xlink:href="#VariableName" xlink:title="VariableName">
      <rect x="353" y="47" width="102" height="32"/>
      <rect x="351" y="45" width="102" height="32" class="nonterminal"/>
      <text class="nonterminal" x="361" y="65">VariableName</text>
   </a>
   <rect x="475" y="47" width="24" height="32" rx="10"/>
   <rect x="473" y="45" width="24" height="32" class="terminal" rx="10"/>
   <text class="terminal" x="483" y="65">:</text>
   <a xmlns:xlink="http://www.w3.org/1999/xlink" xlink:href="#Type" xlink:title="Type">
      <rect x="519" y="47" width="48" height="32"/>
      <rect x="517" y="45" width="48" height="32" class="nonterminal"/>
      <text class="nonterminal" x="527" y="65">Type</text>
   </a>
   <rect x="305" y="3" width="28" height="32" rx="10"/>
   <rect x="303" y="1" width="28" height="32" class="terminal" rx="10"/>
   <text class="terminal" x="313" y="21">, </text>
   <rect x="607" y="47" width="26" height="32" rx="10"/>
   <rect x="605" y="45" width="26" height="32" class="terminal" rx="10"/>
   <text class="terminal" x="615" y="65">)</text>
   <a xmlns:xlink="http://www.w3.org/1999/xlink" xlink:href="#SelectionSet" xlink:title="SelectionSet">
      <rect x="673" y="47" width="94" height="32"/>
      <rect x="671" y="45" width="94" height="32" class="nonterminal"/>
      <text class="nonterminal" x="681" y="65">SelectionSet</text>
   </a>
   <svg:path xmlns:svg="http://www.w3.org/2000/svg" class="line" d="m17 61 h2 m0 0 h10 m58 0 h10 m20 0 h10 m90 0 h10 m0 0 h10 m26 0 h10 m20 0 h10 m28 0 h10 m0 0 h10 m102 0 h10 m0 0 h10 m24 0 h10 m0 0 h10 m48 0 h10 m-302 0 l20 0 m-1 0 q-9 0 -9 -10 l0 -24 q0 -10 10 -10 m282 44 l20 0 m-20 0 q10 0 10 -10 l0 -24 q0 -10 -10 -10 m-282 0 h10 m28 0 h10 m0 0 h234 m20 44 h10 m26 0 h10 m-544 0 h20 m524 0 h20 m-564 0 q10 0 10 10 m544 0 q0 -10 10 -10 m-554 10 v14 m544 0 v-14 m-544 14 q0 10 10 10 m524 0 q10 0 10 -10 m-534 10 h10 m0 0 h514 m20 -34 h10 m94 0 h10 m3 0 h-3"/>
   <polygon points="785 61 793 57 793 65"/>
   <polygon points="785 61 777 57 777 65"/>
</svg>
